<?xml version="1.0" encoding="UTF-8"?>
<svg width="504px" height="504px" version="1.1" viewBox="-165 -165 330 330" xmlns="http://www.w3.org/2000/svg" xmlns:cc="http://creativecommons.org/ns#" xmlns:dc="http://purl.org/dc/elements/1.1/" xmlns:rdf="http://www.w3.org/1999/02/22-rdf-syntax-ns#" xmlns:xlink="http://www.w3.org/1999/xlink">
 <metadata>
  <rdf:RDF>
   <cc:Work rdf:about="">
    <dc:format>image/svg+xml</dc:format>
    <dc:type rdf:resource="http://purl.org/dc/dcmitype/StillImage"/>
    <dc:title>Sun of May</dc:title>
   </cc:Work>
  </rdf:RDF>
 </metadata>
 <title>Sun of May</title>
 <title>Sun of May as represented on the flag of Argentina</title>
 <g id="rays-16" style="fill:#fcbf49;stroke-width:1.5;stroke:#843511">
  <g id="rays-8">
   <g id="rays-4">
    <g id="rays-2">
     <path d="m-8 0 6 159.5s0 3 2 3 2-3 2-3l6-159.5"/>
     <path d="M -4,0 0,109.5 4,0" style="fill:#843511;stroke:none"/>
     <g transform="rotate(11.5)">
      <path d="m-4.5 53.5c-5 21.5 6 36 0.5 55s3 32 4 40-5 11.5-3 13 8-3.5 8.5-14.5-7-15.75-0.5-39-4-31 3-52"/>
      <path d="m-1 58c-3 21 7 32.5 1 51 8-14-2-28 3-50" style="fill:#843511;stroke:none"/>
     </g>
    </g>
    <use transform="scale(-1)" width="100%" height="100%" xlink:href="#rays-2"/>
   </g>
   <use transform="rotate(90)" width="100%" height="100%" xlink:href="#rays-4"/>
  </g>
  <use transform="rotate(45)" width="100%" height="100%" xlink:href="#rays-8"/>
 </g>
 <use transform="rotate(22.5)" width="100%" height="100%" style="fill:#fcbf49;stroke-width:1.5;stroke:#843511" xlink:href="#rays-16"/>
 <circle r="65" style="fill:#fcbf49;stroke:#843511"/>
</svg>