<?xml version="1.0" encoding="UTF-8" standalone="no"?>
<!-- Created with Inkscape (http://www.inkscape.org/) -->

<svg
   version="1.1"
   width="744.09448"
   height="1052.3622"
   id="svg3042"
   sodipodi:docname="WhiteStork.svg"
   inkscape:version="1.4.2 (f4327f4, 2025-05-13)"
   xmlns:inkscape="http://www.inkscape.org/namespaces/inkscape"
   xmlns:sodipodi="http://sodipodi.sourceforge.net/DTD/sodipodi-0.dtd"
   xmlns:xlink="http://www.w3.org/1999/xlink"
   xmlns="http://www.w3.org/2000/svg"
   xmlns:svg="http://www.w3.org/2000/svg"
   xmlns:rdf="http://www.w3.org/1999/02/22-rdf-syntax-ns#"
   xmlns:cc="http://creativecommons.org/ns#"
   xmlns:dc="http://purl.org/dc/elements/1.1/">
  <sodipodi:namedview
     id="namedview1"
     pagecolor="#ffffff"
     bordercolor="#000000"
     borderopacity="0.25"
     inkscape:showpageshadow="2"
     inkscape:pageopacity="0.0"
     inkscape:pagecheckerboard="0"
     inkscape:deskcolor="#d1d1d1"
     inkscape:zoom="0.75544334"
     inkscape:cx="372.62887"
     inkscape:cy="328.94591"
     inkscape:window-width="1920"
     inkscape:window-height="991"
     inkscape:window-x="-9"
     inkscape:window-y="-9"
     inkscape:window-maximized="1"
     inkscape:current-layer="layer1" />
  <defs
     id="defs3044">
    <linearGradient
       id="linearGradient3225">
      <stop
         id="stop3227"
         style="stop-color:#f7f7f6;stop-opacity:1"
         offset="0" />
      <stop
         id="stop3229"
         style="stop-color:#b7b8a8;stop-opacity:0.78227061"
         offset="1" />
    </linearGradient>
    <linearGradient
       id="linearGradient3193">
      <stop
         id="stop3195"
         style="stop-color:#f7f7f6;stop-opacity:1"
         offset="0" />
      <stop
         id="stop3197"
         style="stop-color:#b7b8a8;stop-opacity:1"
         offset="1" />
    </linearGradient>
    <linearGradient
       id="linearGradient3075">
      <stop
         id="stop3077"
         style="stop-color:#a23832;stop-opacity:1"
         offset="0" />
      <stop
         id="stop3079"
         style="stop-color:#b3714f;stop-opacity:1"
         offset="1" />
    </linearGradient>
    <linearGradient
       id="linearGradient3063">
      <stop
         id="stop3065"
         style="stop-color:#d89a98;stop-opacity:1"
         offset="0" />
      <stop
         id="stop3067"
         style="stop-color:#b05b5b;stop-opacity:1"
         offset="1" />
    </linearGradient>
    <linearGradient
       x1="1276.4486"
       y1="509.63513"
       x2="1535.5205"
       y2="519.09027"
       id="linearGradient3445"
       xlink:href="#linearGradient3193"
       gradientUnits="userSpaceOnUse" />
    <linearGradient
       x1="992.79346"
       y1="592.84064"
       x2="1212.1536"
       y2="940.79114"
       id="linearGradient3447"
       xlink:href="#linearGradient3193"
       gradientUnits="userSpaceOnUse" />
    <linearGradient
       x1="1255.6473"
       y1="536.10962"
       x2="979.55621"
       y2="373.48059"
       id="linearGradient3449"
       xlink:href="#linearGradient3225"
       gradientUnits="userSpaceOnUse" />
    <linearGradient
       x1="857.12195"
       y1="294.85892"
       x2="730.09143"
       y2="179.86284"
       id="linearGradient3451"
       xlink:href="#linearGradient3063"
       gradientUnits="userSpaceOnUse" />
    <linearGradient
       x1="706.02246"
       y1="219.30916"
       x2="846.42468"
       y2="319.59644"
       id="linearGradient3453"
       xlink:href="#linearGradient3075"
       gradientUnits="userSpaceOnUse" />
    <linearGradient
       x1="1276.4486"
       y1="509.63513"
       x2="1535.5205"
       y2="519.09027"
       id="linearGradient3482"
       xlink:href="#linearGradient3193"
       gradientUnits="userSpaceOnUse" />
    <linearGradient
       x1="992.79346"
       y1="592.84064"
       x2="1212.1536"
       y2="940.79114"
       id="linearGradient3484"
       xlink:href="#linearGradient3193"
       gradientUnits="userSpaceOnUse" />
    <linearGradient
       x1="1255.6473"
       y1="536.10962"
       x2="979.55621"
       y2="373.48059"
       id="linearGradient3486"
       xlink:href="#linearGradient3225"
       gradientUnits="userSpaceOnUse" />
    <linearGradient
       x1="857.12195"
       y1="294.85892"
       x2="730.09143"
       y2="179.86284"
       id="linearGradient3488"
       xlink:href="#linearGradient3063"
       gradientUnits="userSpaceOnUse" />
    <linearGradient
       x1="706.02246"
       y1="219.30916"
       x2="846.42468"
       y2="319.59644"
       id="linearGradient3490"
       xlink:href="#linearGradient3075"
       gradientUnits="userSpaceOnUse" />
    <linearGradient
       x1="1255.6473"
       y1="536.10962"
       x2="979.55621"
       y2="373.48059"
       id="linearGradient3503"
       xlink:href="#linearGradient3225"
       gradientUnits="userSpaceOnUse"
       gradientTransform="matrix(-0.48896674,0,0,0.48896674,962.52571,228.79732)" />
    <linearGradient
       x1="992.79346"
       y1="592.84064"
       x2="1212.1536"
       y2="940.79114"
       id="linearGradient3506"
       xlink:href="#linearGradient3193"
       gradientUnits="userSpaceOnUse"
       gradientTransform="matrix(-0.48896674,0,0,0.48896674,962.52571,228.79732)" />
    <linearGradient
       x1="1276.4486"
       y1="509.63513"
       x2="1535.5205"
       y2="519.09027"
       id="linearGradient3509"
       xlink:href="#linearGradient3193"
       gradientUnits="userSpaceOnUse"
       gradientTransform="matrix(-0.48896674,0,0,0.48896674,962.52571,228.79732)" />
    <linearGradient
       x1="857.12195"
       y1="294.85892"
       x2="730.09143"
       y2="179.86284"
       id="linearGradient3511"
       xlink:href="#linearGradient3063"
       gradientUnits="userSpaceOnUse" />
    <linearGradient
       x1="706.02246"
       y1="219.30916"
       x2="846.42468"
       y2="319.59644"
       id="linearGradient3513"
       xlink:href="#linearGradient3075"
       gradientUnits="userSpaceOnUse" />
    <linearGradient
       x1="1276.4486"
       y1="509.63513"
       x2="1535.5205"
       y2="519.09027"
       id="linearGradient3672"
       xlink:href="#linearGradient3193"
       gradientUnits="userSpaceOnUse"
       gradientTransform="matrix(-0.48896674,0,0,0.48896674,962.52571,228.79732)" />
    <linearGradient
       x1="992.79346"
       y1="592.84064"
       x2="1212.1536"
       y2="940.79114"
       id="linearGradient3674"
       xlink:href="#linearGradient3193"
       gradientUnits="userSpaceOnUse"
       gradientTransform="matrix(-0.48896674,0,0,0.48896674,962.52571,228.79732)" />
    <linearGradient
       x1="1255.6473"
       y1="536.10962"
       x2="979.55621"
       y2="373.48059"
       id="linearGradient3676"
       xlink:href="#linearGradient3225"
       gradientUnits="userSpaceOnUse"
       gradientTransform="matrix(-0.48896674,0,0,0.48896674,962.52571,228.79732)" />
    <linearGradient
       x1="857.12195"
       y1="294.85892"
       x2="730.09143"
       y2="179.86284"
       id="linearGradient3678"
       xlink:href="#linearGradient3063"
       gradientUnits="userSpaceOnUse" />
    <linearGradient
       x1="706.02246"
       y1="219.30916"
       x2="846.42468"
       y2="319.59644"
       id="linearGradient3680"
       xlink:href="#linearGradient3075"
       gradientUnits="userSpaceOnUse" />
  </defs>
  <metadata
     id="metadata3047">
    <rdf:RDF>
      <cc:Work
         rdf:about="">
        <dc:format>image/svg+xml</dc:format>
        <dc:type
           rdf:resource="http://purl.org/dc/dcmitype/StillImage" />
      </cc:Work>
    </rdf:RDF>
  </metadata>
  <g
     id="layer1">
    <g
       transform="matrix(1.9166791,0,0,1.9166791,-198.60802,-966.55074)"
       id="layer1-6">
      <g
         transform="matrix(0.69071923,0,0,0.69071923,43.974674,382.16979)"
         id="g3598">
        <g
           transform="matrix(1.8426887,0.80059715,-0.80059715,1.8426887,-576.9243,-796.16734)"
           id="g3763">
          <path
             d="m 701.42857,276.6479 -9.28571,37.14285 c 0,0 3.57143,44.28571 1.42857,55 -2.14286,10.71429 -4.99999,30 -7.14285,32.85715 -2.14285,2.85714 -17.14286,20 -20.71429,21.42857 -3.57142,1.42857 -8.6092,2.36411 -13.92858,2.14285 -6.40537,-0.26643 -14.96487,-2.98413 -20.35714,-4.28571 -5.39227,-1.30158 -6.41162,-2.9693 -10.35714,-3.57143 -1.64759,-0.25144 -5.76526,-1.22451 -8.21429,0 -2.12959,1.0648 -5.71428,5.35715 -5.71428,5.35715 l 4.40498,5.41618 c 1.75898,0.87949 26.47835,4.52242 36.3093,4.94096 6.72826,0.28645 13.72649,0.40877 20,2.85714 13.1646,4.50491 9.13116,19.79289 3.81654,31.11168 0,0 -4.81488,8.263 -11.25526,20.562 -3.0329,5.79183 -11.13271,23.32632 -11.13271,23.32632 l -3.57142,11.42857 -5,35.71429 2.85714,15 22.14286,-10 c 0,0 75.49959,-117.09363 76.46792,-116.58866 3.11997,1.62699 25.50761,12.14499 37.66187,16.34308 4.75818,-5.14397 11.02211,-10.10457 13.21866,-22.5137 3.03667,-17.1553 -8.49347,-25.89265 -8.49347,-25.89265 L 751.90301,417.62469 737.14286,281.6479 715,267.36218 Z"
             id="path3732"
             style="fill:#c5c5ab;fill-opacity:1;stroke:none" />
          <path
             d="m 691.95449,312.42544 c 1.01016,-2.0203 7.57615,-24.74873 7.57615,-24.74873 l 3.53553,-17.67767 8.08122,-30.80966 9.09138,-20.20305 c 0,0 1.6963,5.68562 1.51522,8.5863 -0.88924,14.24409 -12.6269,40.91118 -12.6269,40.91118 l 17.17259,-46.9721 4.54569,-6.56599 c 0,0 1.91836,7.058 1.51523,10.6066 -1.42578,12.55067 -13.63706,35.35534 -13.63706,35.35534 l -6.06092,12.12183 c 0,0 13.62177,-31.67806 23.73859,-45.45686 1.97278,-2.68687 7.07106,-7.07107 7.07106,-7.07107 0,0 1.15925,5.79488 0.50508,8.5863 -3.71644,15.85857 -24.24366,42.4264 -24.24366,42.4264 0,0 16.55983,-25.65121 27.27412,-36.36549 2.38095,-2.38095 8.08122,-6.06091 8.08122,-6.06091 0,0 -1.79051,7.31361 -3.53554,10.6066 -6.74835,12.73458 -17.68779,24.10686 -17.68779,24.10686 0,0 15.17138,-14.84907 24.29827,-20.03613 2.62953,-1.49444 9.05815,-4.37029 9.05815,-4.37029 0,0 -2.19782,6.21427 -6.07218,10.90616 -3.87436,4.69189 -19.1929,16.66752 -19.1929,16.66752 0,0 15.27144,-12.29501 24.50901,-13.24446 2.12631,-0.21855 6.14369,1.83731 6.14369,1.83731 l -9.94457,8.37669 2.52538,2.52538 -4.54568,8.08122 2.52538,3.53554 -4.04061,5.55584 3.03046,3.53553 -2.02031,4.04061 2.52538,3.53553 -2.0203,3.53554 1.51523,3.53553 -2.52539,3.53553 4.54569,14.14214 3.53553,19.69798 v 22.22335 l -2.52538,28.78935 -4.54568,16.66752 -1.51523,4.54568 2.96654,5.48883 -10.54269,1.07716 -11.61675,-4.04061 -13.13198,-3.03045 c 0,0 6.42779,-2.93368 8.08122,-6.06092 1.65344,-3.12725 0.98171,-7.43473 0.50507,-11.11168 l -3.53553,-27.27412 c 0,0 -3.24651,-23.30009 -7.07107,-34.34518 l -7.07107,-16.66752 3.53554,-15.15229 c 1.14337,-11.44388 1.11634,-8.14208 -2.39405,-19.17755 -2.79171,-8.7762 -7.89337,-8.95151 -14.27347,-6.07626 -3.59244,9.70834 -5.56389,19.45999 -5.84005,28.14167 -0.0952,2.9934 -6.78686,9.23397 -6.78686,9.23397 z"
             id="path2954"
             style="fill:#000000;stroke:none" />
          <path
             d="m 646.49763,521.52702 -3.53553,21.2132 c 0,0 4.54925,-7.77333 5.05076,-12.12183 0.35199,-3.05203 -1.51523,-9.09137 -1.51523,-9.09137 z"
             id="path2956"
             style="fill:#000000;stroke:none" />
          <path
             d="m 642.45702,548.29606 c -1.01015,2.02031 -10.6066,44.44671 -10.10153,52.52793 0.50508,8.08122 2.02031,18.18275 2.02031,18.18275 0,0 4.04061,-9.09137 4.04061,-11.11168 0,-2.0203 3.03046,-25.75889 3.03046,-25.75889 0,0 -2.17402,24.96701 -1.01016,37.37565 0.37005,3.94538 2.52539,11.61675 2.52539,11.61675 l 4.04061,-12.62691 1.51522,-43.43656 c 0,0 0.88472,30.49178 3.53554,45.45687 0.76236,4.30385 3.53553,12.62691 3.53553,12.62691 0,0 3.57886,-10.62838 4.04061,-16.16244 1.24973,-14.97816 -3.53553,-44.95179 -3.53553,-44.95179 0,0 4.12673,33.39722 8.89712,49.71425 1.24725,4.26622 3.72979,12.9152 3.72979,12.9152 0,0 1.70598,-11.76658 1.51522,-17.67766 -0.47233,-14.63572 -6.56599,-43.43656 -6.56599,-43.43656 0,0 6.03163,31.50719 12.62691,45.96194 1.51187,3.31354 6.06091,9.09137 6.06091,9.09137 0,0 1.33094,-12.84656 0.50508,-19.1929 -1.31309,-10.09053 -8.5863,-29.29442 -8.5863,-29.29442 5.57228,13.9064 12.08601,23.8568 19.1929,31.31473 l -0.50507,-15.15229 -2.02031,-8.5863 4.04061,1.01015 v -12.6269 l 3.03046,-1.51523 v -7.07107 l 4.04061,-1.51523 v -6.56599 l 3.03046,-3.03046 -0.50508,-7.57614 6.06092,-8.08122 19.69797,-29.7995 9.59645,-20.20305 4.04061,-11.11168 4.04061,-20.20305 6.59162,-5.78079 c 0,0 -9.02071,-6.76993 -14.3661,-7.30263 -3.062,-0.30515 -6.86096,-0.9269 -9.68641,0.65077 l -7.79292,4.35143 -13.63706,23.23351 c -8.36406,14.24988 -15.65129,23.96256 -24.24366,35.35534 -2.22524,2.64224 -7.57615,7.07106 -7.57615,7.07106 l -7.07107,4.04061 c 0,0 1.64011,6.36041 1.51523,9.59645 -1.74546,7.34953 -1.06174,15.13643 -7.07106,21.71828 l -7.57615,6.56599 c 0,0 -4.09325,3.34072 -6.56599,4.04061 -2.10593,0.59607 -6.56599,0 -6.56599,0 l -1.01015,-2.52538 z"
             id="path2958"
             style="fill:#000000;stroke:none" />
          <path
             d="m 608.61097,421.62293 -37.26869,13.31024 45.25483,-7.32063 z"
             id="path3737"
             style="fill:#b31b1b;fill-opacity:1;stroke:none" />
          <path
             d="m 746.70476,430.10822 66.46804,5.65685 h 33.94112 l -21.2132,7.07107 -22.62742,-5.65686 z"
             id="path3739"
             style="fill:#c24848;fill-opacity:1;stroke:none" />
          <path
             d="m 743.16923,440.71482 66.46804,5.65685 h 33.94112 l -21.2132,7.07107 -22.62742,-5.65686 z"
             id="path3739-7"
             style="fill:#c93636;fill-opacity:1;stroke:none" />
        </g>
        <path
           d="m 227.33483,473.94883 c 0,0 -3.86172,1.05447 -5.3033,0.35355 -1.47622,-0.71777 -2.00227,-2.74354 -1.06066,-3.53553 1.81505,-1.52663 6.36396,3.18198 6.36396,3.18198 z"
           id="path3596"
           style="fill:#000000;stroke:#000000;stroke-width:1px;stroke-linecap:butt;stroke-linejoin:miter;stroke-opacity:1" />
      </g>
    </g>
  </g>
</svg>
