<?xml version="1.0" encoding="UTF-8" standalone="no"?>
<!-- Created with Inkscape (http://www.inkscape.org/) -->
<svg id="svg1" height="361.69" viewBox="0,0,858.33911,361.68967" width="858.34" xmlns="http://www.w3.org/2000/svg" xmlns:xlink="http://www.w3.org/1999/xlink" xmlns:svg="http://www.w3.org/2000/svg">
 <linearGradient id="lg1" gradientUnits="userSpaceOnUse">
  <stop id="stop5" offset="0" stop-color="#7a7a7a"/>
  <stop id="stop6" offset=".292007" stop-color="#fff"/>
  <stop id="stop7" offset="1" stop-color="#313131"/>
 </linearGradient>
 <linearGradient id="linearGradient7" gradientTransform="matrix(-2.834646 0 0 2.834646 380.77 -321.81)" spreadMethod="pad" x1="98.28" x2="96.76" xlink:href="#lg1" y1="145.67" y2="150.35"/>
 <linearGradient id="linearGradient10" gradientTransform="matrix(-2.834646 0 0 2.834646 432.06 -338.41)" spreadMethod="pad" x1="98.28" x2="96.76" xlink:href="#lg1" y1="145.67" y2="150.35"/>
 <linearGradient id="linearGradient13" gradientTransform="matrix(-2.834646 0 0 2.834646 482.23 -354.64)" spreadMethod="pad" x1="98.28" x2="96.76" xlink:href="#lg1" y1="145.67" y2="150.35"/>
 <linearGradient id="linearGradient16" gradientTransform="matrix(-2.834646 0 0 2.834646 532.4 -370.87)" spreadMethod="pad" x1="98.28" x2="96.76" xlink:href="#lg1" y1="145.67" y2="150.35"/>
 <linearGradient id="linearGradient19" gradientTransform="matrix(-2.834646 0 0 2.834646 547.39 -375.69)" spreadMethod="pad" x1="98.28" x2="96.76" xlink:href="#lg1" y1="145.67" y2="150.35"/>
 <linearGradient id="linearGradient23" gradientTransform="matrix(-2.834646 0 0 2.834646 488.89 -279.19)" spreadMethod="pad" x1="98.28" x2="96.76" xlink:href="#lg1" y1="145.67" y2="150.35"/>
 <linearGradient id="linearGradient26" gradientTransform="matrix(-2.834646 0 0 2.834646 540.18 -295.79)" spreadMethod="pad" x1="98.28" x2="96.76" xlink:href="#lg1" y1="145.67" y2="150.35"/>
 <linearGradient id="linearGradient29" gradientTransform="matrix(-2.834646 0 0 2.834646 590.35 -312.03)" spreadMethod="pad" x1="98.28" x2="96.76" xlink:href="#lg1" y1="145.67" y2="150.35"/>
 <linearGradient id="linearGradient32" gradientTransform="matrix(-2.834646 0 0 2.834646 640.52 -328.26)" spreadMethod="pad" x1="98.28" x2="96.76" xlink:href="#lg1" y1="145.67" y2="150.35"/>
 <linearGradient id="linearGradient35" gradientTransform="matrix(-2.834646 0 0 2.834646 559.69 -249.73)" spreadMethod="pad" x1="98.28" x2="96.76" xlink:href="#lg1" y1="145.67" y2="150.35"/>
 <linearGradient id="linearGradient38" gradientTransform="matrix(-2.834646 0 0 2.834646 610.99 -266.34)" spreadMethod="pad" x1="98.28" x2="96.76" xlink:href="#lg1" y1="145.67" y2="150.35"/>
 <linearGradient id="linearGradient41" gradientTransform="matrix(-2.834646 0 0 2.834646 661.16 -282.57)" spreadMethod="pad" x1="98.28" x2="96.76" xlink:href="#lg1" y1="145.67" y2="150.35"/>
 <linearGradient id="linearGradient44" gradientTransform="matrix(-2.834646 0 0 2.834646 704.42 -296.65)" spreadMethod="pad" x1="98.28" x2="96.76" xlink:href="#lg1" y1="145.67" y2="150.35"/>
 <linearGradient id="linearGradient47" gradientTransform="matrix(-2.834646 0 0 2.834646 626.89 -219.56)" spreadMethod="pad" x1="98.28" x2="96.76" xlink:href="#lg1" y1="145.67" y2="150.35"/>
 <linearGradient id="linearGradient50" gradientTransform="matrix(-2.834646 0 0 2.834646 678.18 -236.17)" spreadMethod="pad" x1="98.28" x2="96.76" xlink:href="#lg1" y1="145.67" y2="150.35"/>
 <linearGradient id="linearGradient53" gradientTransform="matrix(-2.834646 0 0 2.834646 728.35 -252.4)" spreadMethod="pad" x1="98.28" x2="96.76" xlink:href="#lg1" y1="145.67" y2="150.35"/>
 <linearGradient id="linearGradient56" gradientTransform="matrix(-2.834646 0 0 2.834646 771.62 -266.48)" spreadMethod="pad" x1="98.28" x2="96.76" xlink:href="#lg1" y1="145.67" y2="150.35"/>
 <linearGradient id="linearGradient59" gradientTransform="matrix(-2.834646 0 0 2.834646 694.09 -189.02)" spreadMethod="pad" x1="98.28" x2="96.76" xlink:href="#lg1" y1="145.67" y2="150.35"/>
 <linearGradient id="linearGradient62" gradientTransform="matrix(-2.834646 0 0 2.834646 745.38 -205.63)" spreadMethod="pad" x1="98.28" x2="96.76" xlink:href="#lg1" y1="145.67" y2="150.35"/>
 <linearGradient id="linearGradient65" gradientTransform="matrix(-2.834646 0 0 2.834646 795.55 -221.86)" spreadMethod="pad" x1="98.28" x2="96.76" xlink:href="#lg1" y1="145.67" y2="150.35"/>
 <linearGradient id="linearGradient68" gradientTransform="matrix(-2.834646 0 0 2.834646 838.82 -235.94)" spreadMethod="pad" x1="98.28" x2="96.76" xlink:href="#lg1" y1="145.67" y2="150.35"/>
 <g id="g1">
  <path id="path1" d="m0 0h643.754v271.266h-643.754z" fill="#fff" transform="scale(1.3333333)"/>
  <path id="path2" d="m185.168 71.758 33.598 15.086m0 0 67.199 30.176" fill="none" stroke="#000" stroke-width="5.854" transform="scale(1.3333333)"/>
  <path id="path3" d="m285.965 117.02 67.195 30.175" fill="none" stroke="#000" stroke-width="5.854" transform="scale(1.3333333)"/>
  <path id="path4" d="m353.16 147.195 67.195 30.176" fill="none" stroke="#000" stroke-width="5.854" transform="scale(1.3333333)"/>
  <path id="path5" d="m420.355 177.73 67.2 30.176" fill="none" stroke="#000" stroke-width="5.854" transform="scale(1.3333333)"/>
  <path id="path7" d="m128.203 83.695c2.059.407 3.723 1.926 4.625 3.782 1.195 2.461 1.172 5.695-.707 7.824-1.234 1.34-3.113 1.469-4.73 2.109-16.727 5.41-33.45 10.82-50.172 16.235 1.398-.29 2.609-1.161 3.301-2.415 1.402-2.597.972-5.914-.622-8.339-1.023-1.555-2.675-2.883-4.589-3.016-1.528.09-.633-.172.339-.441 17.043-5.246 34.086-10.493 51.129-15.739z" fill="url(#linearGradient7)" transform="scale(1.3333333)"/>
  <path id="path8" d="m-80.574 104.07c.316-.519.578-1.074.926-1.57.39-.414.753-.867 1.164-1.258.464-.297.902-.637 1.379-.902.492-.149.972-.352 1.468-.465.485.012.977-.039 1.457.008.446.168.918.277 1.344.48.375.305.797.575 1.145.907.285.429.613.832.871 1.277.172.535.41 1.055.539 1.598.047.578.152 1.16.16 1.738-.086.609-.102 1.234-.231 1.836-.199.566-.347 1.152-.578 1.703-.312.519-.574 1.07-.918 1.562-.398.418-.754.887-1.183 1.274-.449.289-.875.629-1.336.887-.492.152-.969.359-1.465.472-.484-.004-.977.047-1.453.004-.449-.164-.926-.269-1.352-.465-.379-.304-.801-.57-1.152-.898-.289-.43-.621-.832-.883-1.278-.176-.535-.414-1.054-.547-1.597-.051-.582-.156-1.168-.168-1.75.063-.571.125-1.141.262-1.735.141-.589.305-1.23.551-1.828z" fill="#919191" stroke="#000" stroke-width="1.548" transform="scale(-1.3333333 1.3333333)"/>
  <path id="path10" d="m179.496 67.086c2.059.406 3.727 1.926 4.625 3.785 1.195 2.461 1.172 5.695-.707 7.82-1.234 1.344-3.113 1.473-4.73 2.114-16.723 5.41-33.45 10.82-50.172 16.23 1.398-.285 2.609-1.16 3.3-2.41 1.407-2.602.973-5.914-.617-8.34-1.027-1.555-2.679-2.883-4.593-3.019-1.528.093-.633-.168.339-.442 17.043-5.242 34.086-10.488 51.129-15.734.477 0 .95 0 1.426-.004z" fill="url(#linearGradient10)" transform="scale(1.3333333)"/>
  <path id="path13" d="m229.664 50.855c2.059.407 3.727 1.926 4.625 3.786 1.195 2.461 1.172 5.695-.703 7.82-1.238 1.34-3.117 1.473-4.734 2.113-16.723 5.41-33.446 10.821-50.168 16.231 1.398-.285 2.605-1.16 3.3-2.41 1.403-2.602.973-5.915-.621-8.34-1.027-1.555-2.679-2.887-4.59-3.02-1.531.094-.632-.168.34-.441 17.043-5.246 34.086-10.492 51.129-15.735.473-.004.949-.004 1.422-.004z" fill="url(#linearGradient13)" transform="scale(1.3333333)"/>
  <path id="path16" d="m279.836 34.625c2.059.406 3.726 1.926 4.625 3.781 1.195 2.465 1.172 5.699-.707 7.824-1.234 1.34-3.113 1.473-4.731 2.114-16.722 5.41-33.445 10.82-50.171 16.23 1.398-.285 2.609-1.16 3.3-2.41 1.407-2.602.973-5.918-.617-8.34-1.027-1.558-2.68-2.886-4.59-3.019-1.531.09-.636-.168.336-.442 17.043-5.246 34.086-10.492 51.129-15.738z" fill="url(#linearGradient16)" transform="scale(1.3333333)"/>
  <path id="path19" d="m294.824 29.812c2.059.407 3.727 1.926 4.625 3.782 1.196 2.465 1.172 5.699-.703 7.824-1.238 1.34-3.117 1.473-4.734 2.113-16.723 5.41-33.446 10.821-50.168 16.231 1.398-.289 2.605-1.16 3.301-2.41 1.402-2.602.972-5.918-.622-8.34-1.027-1.559-2.679-2.887-4.589-3.02-1.532.09-.633-.168.339-.441 17.043-5.246 34.086-10.492 51.129-15.739z" fill="url(#linearGradient19)" transform="scale(1.3333333)"/>
  <path id="path20" d="m-75.648 99.434-217.985-69.563h-1.363c-1.973.387-3.57 1.844-4.43 3.621-1.148 2.36-1.125 5.457.672 7.492 1.188 1.286 2.984 1.411 4.535 2.024l217 70.637" fill="none" stroke="#000" stroke-linecap="round" stroke-linejoin="round" stroke-width="1.548" transform="scale(-1.3333333 1.3333333)"/>
  <path id="path21" d="m294.668 38.758c99.152 44.551 198.246 89.242 297.359 133.883" fill="none" stroke="#000" stroke-dasharray="2.25,.75" stroke-width=".75" transform="scale(1.3333333)"/>
  <path id="path23" d="m236.324 126.312c2.059.407 3.727 1.926 4.625 3.782 1.196 2.461 1.172 5.695-.703 7.824-1.238 1.34-3.117 1.469-4.734 2.109-16.723 5.411-33.446 10.825-50.172 16.235 1.398-.289 2.609-1.16 3.301-2.414 1.406-2.598.976-5.914-.618-8.34-1.027-1.555-2.679-2.883-4.589-3.016-1.532.09-.637-.172.336-.441 17.042-5.246 34.085-10.492 51.128-15.739z" fill="url(#linearGradient23)" transform="scale(1.3333333)"/>
  <path id="path24" d="m-188.695 146.688c.312-.52.578-1.075.925-1.571.391-.414.754-.863 1.165-1.258.46-.297.902-.636 1.378-.902.489-.148.969-.352 1.465-.465.485.012.981-.039 1.457.012.446.164.922.273 1.348.476.375.305.793.575 1.145.907.285.429.613.836.867 1.277.175.535.41 1.055.543 1.598.043.578.152 1.16.16 1.738-.086.609-.102 1.234-.235 1.836-.199.566-.343 1.152-.574 1.707-.312.516-.574 1.066-.918 1.559-.398.418-.758.886-1.183 1.273-.45.289-.875.629-1.34.887-.488.152-.965.359-1.461.472-.485-.004-.977.047-1.457.004-.445-.164-.922-.269-1.348-.465-.379-.304-.801-.57-1.156-.898-.285-.43-.621-.832-.879-1.273-.176-.536-.414-1.059-.551-1.602-.047-.582-.156-1.168-.164-1.75.063-.57.125-1.141.262-1.734.141-.59.301-1.231.551-1.828z" fill="#919191" stroke="#000" stroke-width="1.548" transform="scale(-1.3333333 1.3333333)"/>
  <path id="path26" d="m287.617 109.703c2.059.41 3.727 1.926 4.625 3.785 1.196 2.461 1.172 5.696-.703 7.821-1.238 1.343-3.117 1.472-4.734 2.113-16.723 5.41-33.446 10.82-50.168 16.23 1.394-.285 2.605-1.16 3.297-2.41 1.406-2.601.976-5.914-.618-8.34-1.027-1.554-2.679-2.882-4.589-3.019-1.532.094-.633-.168.335-.442 17.043-5.242 34.09-10.488 51.133-15.734.473 0 .95 0 1.422-.004z" fill="url(#linearGradient26)" transform="scale(1.3333333)"/>
  <path id="path29" d="m337.789 93.473c2.059.406 3.727 1.925 4.625 3.785 1.195 2.461 1.172 5.695-.707 7.82-1.234 1.34-3.113 1.473-4.73 2.113-16.723 5.411-33.45 10.821-50.172 16.231 1.398-.285 2.609-1.16 3.3-2.41 1.407-2.602.973-5.914-.617-8.34-1.027-1.555-2.679-2.883-4.593-3.02-1.528.094-.633-.168.339-.441 17.043-5.246 34.086-10.488 51.129-15.734.477 0 .949-.004 1.426-.004z" fill="url(#linearGradient29)" transform="scale(1.3333333)"/>
  <path id="path32" d="m388.266 77.328-51.754 16.434c1.293.511 2.39 1.531 3.144 2.679 1.594 2.422 2.024 5.739.617 8.34-.511.93-1.316 1.653-2.269 2.078 16.379-5.3 32.762-10.601 49.141-15.898 1.617-.641 3.496-.773 4.734-2.113 1.875-2.125 1.898-5.36.703-7.825-.852-1.761-2.402-3.203-4.316-3.695zm-50.262 29.531c-.344.11-.688.223-1.027.332.355-.074.699-.187 1.027-.332z" fill="url(#linearGradient32)" transform="scale(1.3333333)"/>
  <path id="path33" d="m-183.77 142.051-203.332-64.27-1.363-.004c-1.973.391-3.57 1.844-4.43 3.625-1.144 2.36-1.125 5.457.676 7.493 1.184 1.285 2.985 1.41 4.531 2.023l202.348 65.344" fill="none" stroke="#000" stroke-linecap="round" stroke-linejoin="round" stroke-width="1.548" transform="scale(-1.3333333 1.3333333)"/>
  <path id="path35" d="m307.129 155.766c2.059.406 3.726 1.925 4.625 3.781 1.195 2.465 1.172 5.699-.707 7.824-1.235 1.34-3.113 1.473-4.731 2.113-16.722 5.411-33.449 10.821-50.171 16.231 1.398-.285 2.609-1.16 3.3-2.41 1.407-2.602.973-5.918-.617-8.34-1.027-1.559-2.68-2.887-4.594-3.02-1.527.09-.632-.168.34-.441 17.043-5.246 34.086-10.492 51.129-15.738z" fill="url(#linearGradient35)" transform="scale(1.3333333)"/>
  <path id="path36" d="m-259.5 176.141c.312-.52.578-1.075.926-1.571.39-.414.754-.863 1.164-1.258.461-.292.902-.636 1.379-.902.488-.148.969-.351 1.469-.461.484.012.976-.043 1.457.008.441.164.917.273 1.343.477.375.308.793.574 1.145.906.285.43.613.836.871 1.277.172.535.406 1.055.539 1.598.047.578.152 1.16.16 1.738-.086.609-.101 1.235-.234 1.836-.196.566-.344 1.156-.574 1.707-.313.516-.575 1.066-.918 1.559-.399.422-.758.886-1.184 1.277-.449.289-.875.625-1.34.887-.488.148-.965.355-1.461.469-.484-.004-.976.05-1.457.003-.445-.164-.922-.269-1.347-.464-.379-.305-.801-.567-1.157-.899-.285-.43-.621-.832-.879-1.273-.175-.535-.414-1.055-.55-1.602-.047-.582-.157-1.164-.164-1.75.062-.57.124-1.141.261-1.73.141-.594.301-1.231.551-1.832z" fill="#919191" stroke="#000" stroke-width="1.548" transform="scale(-1.3333333 1.3333333)"/>
  <path id="path38" d="m358.422 139.16c2.058.406 3.726 1.926 4.625 3.781 1.195 2.461 1.172 5.696-.703 7.825-1.239 1.339-3.117 1.468-4.735 2.109-16.722 5.41-33.445 10.824-50.171 16.234 1.398-.289 2.609-1.16 3.3-2.414 1.407-2.597.977-5.914-.617-8.34-1.027-1.554-2.68-2.882-4.59-3.015-1.531.09-.636-.172.336-.442 17.043-5.246 34.086-10.492 51.129-15.738z" fill="url(#linearGradient38)" transform="scale(1.3333333)"/>
  <path id="path41" d="m408.594 122.93c2.054.406 3.722 1.922 4.625 3.781 1.195 2.461 1.172 5.695-.707 7.82-1.235 1.344-3.114 1.473-4.731 2.114-16.726 5.41-33.449 10.82-50.172 16.23 1.399-.285 2.61-1.156 3.301-2.41 1.402-2.602.973-5.914-.621-8.34-1.023-1.555-2.676-2.883-4.59-3.02-1.527.094-.633-.167.34-.437l51.129-15.738z" fill="url(#linearGradient41)" transform="scale(1.3333333)"/>
  <path id="path44" d="m451.859 108.844c2.059.406 3.727 1.926 4.625 3.785 1.196 2.461 1.172 5.695-.707 7.82-1.234 1.34-3.113 1.473-4.73 2.113-16.723 5.411-33.449 10.821-50.172 16.231 1.398-.285 2.609-1.16 3.301-2.41 1.406-2.602.972-5.914-.617-8.34-1.028-1.555-2.68-2.887-4.594-3.02-1.527.094-.633-.168.34-.441 17.043-5.246 34.086-10.492 51.129-15.734.476-.004.949-.004 1.425-.004z" fill="url(#linearGradient44)" transform="scale(1.3333333)"/>
  <path id="path45" d="m-254.574 171.504-196.117-62.828h-1.364c-1.968.39-3.566 1.844-4.429 3.625-1.145 2.355-1.121 5.453.675 7.492 1.184 1.285 2.985 1.41 4.536 2.023l195.128 63.899" fill="none" stroke="#000" stroke-linecap="round" stroke-linejoin="round" stroke-width="1.548" transform="scale(-1.3333333 1.3333333)"/>
  <path id="path47" d="m374.324 185.941c2.059.407 3.727 1.926 4.625 3.782 1.196 2.465 1.172 5.699-.703 7.824-1.238 1.34-3.117 1.473-4.734 2.113-16.723 5.41-33.446 10.82-50.168 16.231 1.394-.289 2.605-1.161 3.297-2.414 1.406-2.598.976-5.915-.618-8.34-1.027-1.555-2.679-2.883-4.589-3.016-1.532.09-.633-.172.336-.441 17.042-5.246 34.089-10.492 51.132-15.739z" fill="url(#linearGradient47)" transform="scale(1.3333333)"/>
  <path id="path48" d="m-326.699 206.316c.316-.519.582-1.074.926-1.57.394-.414.757-.863 1.168-1.258.46-.297.898-.636 1.375-.902.492-.148.972-.352 1.468-.465.485.012.981-.039 1.457.012.446.164.922.273 1.348.476.375.309.793.575 1.145.907.281.429.613.836.867 1.277.172.535.41 1.055.543 1.598.043.578.152 1.16.156 1.738-.082.609-.098 1.234-.231 1.836-.199.566-.343 1.156-.578 1.707-.308.516-.574 1.066-.914 1.558-.402.418-.758.887-1.183 1.274-.45.293-.875.629-1.34.891-.488.148-.969.355-1.461.468-.485-.004-.981.047-1.457.004-.445-.164-.922-.269-1.352-.465-.379-.304-.8-.57-1.152-.898-.289-.43-.621-.832-.879-1.274-.176-.535-.418-1.058-.551-1.601-.047-.582-.156-1.168-.168-1.75.063-.57.125-1.141.266-1.731.137-.593.301-1.23.547-1.832z" fill="#919191" stroke="#000" stroke-width="1.548" transform="scale(-1.3333333 1.3333333)"/>
  <path id="path50" d="m425.617 169.336c2.059.406 3.727 1.922 4.625 3.781 1.199 2.461 1.172 5.695-.703 7.821-1.238 1.343-3.117 1.472-4.734 2.113-16.723 5.41-33.446 10.82-50.168 16.23 1.398-.285 2.605-1.156 3.301-2.41 1.402-2.601.972-5.914-.622-8.34-1.027-1.554-2.679-2.883-4.589-3.015-1.528.089-.633-.172.339-.442 17.043-5.246 34.086-10.492 51.129-15.738z" fill="url(#linearGradient50)" transform="scale(1.3333333)"/>
  <path id="path53" d="m475.789 153.102c2.059.406 3.727 1.925 4.625 3.785 1.195 2.461 1.172 5.695-.707 7.82-1.234 1.344-3.113 1.473-4.73 2.113-16.723 5.41-33.446 10.821-50.172 16.231 1.398-.285 2.609-1.16 3.3-2.41 1.407-2.602.977-5.914-.617-8.34-1.027-1.555-2.679-2.883-4.59-3.02-1.531.094-.636-.168.336-.441 17.043-5.242 34.086-10.488 51.129-15.735.477 0 .949 0 1.426-.003z" fill="url(#linearGradient53)" transform="scale(1.3333333)"/>
  <path id="path56" d="m519.055 139.02c2.058.406 3.726 1.925 4.625 3.781 1.195 2.465 1.172 5.699-.703 7.824-1.239 1.34-3.118 1.473-4.735 2.113-16.722 5.41-33.445 10.821-50.168 16.231 1.395-.285 2.606-1.16 3.297-2.41 1.406-2.602.977-5.918-.617-8.34-1.027-1.559-2.68-2.887-4.59-3.02-1.531.09-.633-.168.336-.441 17.043-5.246 34.09-10.492 51.133-15.738z" fill="url(#linearGradient56)" transform="scale(1.3333333)"/>
  <path id="path57" d="m-321.77 201.68-196.117-62.828h-1.363c-1.973.39-3.57 1.843-4.43 3.625-1.144 2.355-1.125 5.453.676 7.492 1.184 1.281 2.984 1.41 4.531 2.023l195.129 63.899" fill="none" stroke="#000" stroke-linecap="round" stroke-linejoin="round" stroke-width="1.548" transform="scale(-1.3333333 1.3333333)"/>
  <path id="path59" d="m441.523 216.477c2.055.406 3.723 1.925 4.625 3.781 1.196 2.465 1.172 5.699-.707 7.824-1.234 1.34-3.113 1.473-4.73 2.113-16.727 5.41-33.449 10.821-50.172 16.231 1.399-.289 2.609-1.16 3.301-2.414 1.402-2.598.972-5.914-.621-8.34-1.024-1.555-2.676-2.883-4.59-3.016-1.527.09-.633-.172.34-.441 17.043-5.246 34.086-10.492 51.129-15.738z" fill="url(#linearGradient59)" transform="scale(1.3333333)"/>
  <path id="path60" d="m-393.895 236.852c.243-.559.563-1.082.926-1.571.34-.457.731-.886 1.164-1.258.422-.355.883-.668 1.379-.902.465-.223.961-.387 1.469-.465.48-.07.977-.074 1.457.012.469.082.93.246 1.344.477.426.234.812.55 1.144.906.352.379.641.816.871 1.277.25.504.422 1.047.539 1.598.122.57.172 1.156.161 1.738-.012.617-.094 1.234-.231 1.836-.137.586-.328 1.16-.578 1.707s-.555 1.074-.918 1.559c-.344.464-.742.898-1.184 1.273-.406.348-.855.656-1.336.891-.46.218-.957.39-1.464.468-.477.079-.977.082-1.453.004-.473-.078-.934-.238-1.352-.464-.43-.231-.82-.543-1.152-.899-.356-.375-.649-.812-.883-1.273-.254-.504-.43-1.051-.547-1.602-.125-.574-.184-1.164-.168-1.75.016-.582.137-1.16.262-1.73.14-.625.297-1.25.55-1.832z" fill="#919191" stroke="#000" stroke-linecap="round" stroke-linejoin="round" stroke-width="1.548" transform="scale(-1.3333333 1.3333333)"/>
  <path id="path62" d="m492.816 199.871c2.059.406 3.727 1.922 4.625 3.781 1.196 2.461 1.172 5.696-.707 7.821-1.234 1.343-3.113 1.472-4.73 2.113-16.723 5.41-33.449 10.82-50.172 16.23 1.398-.285 2.609-1.156 3.301-2.41 1.406-2.601.972-5.914-.617-8.34-1.028-1.554-2.68-2.882-4.594-3.015-1.527.09-.633-.172.34-.442 17.043-5.246 34.086-10.492 51.129-15.738z" fill="url(#linearGradient62)" transform="scale(1.3333333)"/>
  <path id="path65" d="m542.984 183.637c2.059.406 3.727 1.925 4.625 3.785 1.196 2.461 1.172 5.695-.703 7.82-1.238 1.344-3.117 1.473-4.734 2.113-16.723 5.411-33.445 10.821-50.168 16.231 1.398-.285 2.605-1.16 3.301-2.41 1.402-2.602.972-5.914-.621-8.34-1.028-1.555-2.68-2.883-4.59-3.02-1.532.094-.633-.168.336-.441 17.047-5.246 34.09-10.488 51.132-15.734.473 0 .95-.004 1.422-.004z" fill="url(#linearGradient65)" transform="scale(1.3333333)"/>
  <path id="path68" d="m586.25 169.555c2.059.406 3.727 1.925 4.629 3.781 1.195 2.465 1.172 5.699-.707 7.824-1.234 1.34-3.113 1.473-4.731 2.113-16.726 5.411-33.449 10.821-50.171 16.231 1.398-.285 2.609-1.16 3.3-2.41 1.403-2.602.973-5.918-.621-8.34-1.023-1.559-2.676-2.887-4.59-3.02-1.527.09-.632-.168.34-.441 17.043-5.246 34.086-10.492 51.129-15.738z" fill="url(#linearGradient68)" transform="scale(1.3333333)"/>
  <path id="path69" d="m-388.969 232.215-196.113-62.828h-1.363c-1.973.39-3.571 1.843-4.434 3.621-1.144 2.359-1.121 5.457.676 7.496 1.183 1.281 2.984 1.41 4.535 2.023l195.129 63.899" fill="none" stroke="#000" stroke-linecap="round" stroke-linejoin="round" stroke-width="1.548" transform="scale(-1.3333333 1.3333333)"/>
  <path id="path70" d="m87.668 106.258c99.457 44.687 198.855 89.515 298.273 134.297" fill="none" stroke="#000" stroke-dasharray="2.25,.75" stroke-width=".75" transform="scale(1.3333333)"/>
  <path id="path71" d="m314.371 18.883c1.574 0 2.871.39 3.891 1.168 1.023.765 1.531 1.929 1.531 3.488 0 1.172-.293 2.121-.879 2.859-.582.735-1.371 1.258-2.359 1.575l3.394 5.918c.047.089.071.171.071.246 0 .136-.055.254-.161.359-.089.09-.199.137-.336.137h-.968c-.418 0-.743-.203-.965-.61l-3.266-5.738h-3.867v5.738c0 .165-.062.309-.18.43-.121.117-.265.18-.429.18h-.922c-.164 0-.309-.063-.426-.18-.121-.121-.18-.265-.18-.43v-14.535c0-.164.059-.308.18-.426.117-.121.262-.179.426-.179zm-.113 7.379c2.265 0 3.398-.907 3.398-2.723 0-.93-.285-1.598-.855-2.004-.571-.418-1.418-.629-2.543-.629h-3.801v5.356z" transform="scale(1.3333333)"/>
  <path id="path72" d="m411.059 76.34-1.168 2.992c-.137.375-.43.563-.879.563h-.832c-.137 0-.254-.047-.36-.137-.09-.102-.136-.223-.136-.36 0-.074.031-.179.089-.312l5.516-14.199c.191-.496.531-.742 1.012-.742h1.347c.481 0 .821.246 1.016.742l5.488 14.199c.059.133.09.238.09.312 0 .137-.051.258-.156.36-.09.09-.203.137-.34.137h-.832c-.449 0-.742-.188-.879-.563l-1.168-2.992zm7.019-2.028-3.105-8.031-3.125 8.031z" transform="scale(1.3333333)"/>
  <path id="path73" d="m485.332 102.059c-.016 1.246-.293 2.336-.832 3.265-.543.914-1.285 1.617-2.23 2.114-.942.48-2.032.718-3.262.718h-5.285c-.168 0-.309-.058-.43-.179-.117-.118-.18-.262-.18-.426v-14.535c0-.164.063-.309.18-.43.121-.117.262-.18.43-.18h5.152c1.242 0 2.348.25 3.305.742.976.481 1.742 1.188 2.297 2.118.554.914.839 1.996.855 3.238.016.453.023 1.043.023 1.777 0 .739-.007 1.328-.023 1.778zm-10.082-7.625v11.699h3.645c1.5 0 2.582-.391 3.242-1.172.675-.777 1.027-1.785 1.058-3.012.016-.453.02-1.008.02-1.668s-.004-1.215-.02-1.664c-.031-1.215-.398-2.211-1.105-2.992-.703-.793-1.805-1.191-3.305-1.191zm15.953 17.054c0 .149-.043.27-.133.36s-.211.136-.363.136h-.742c-.149 0-.27-.046-.36-.136-.089-.09-.132-.211-.132-.36v-5.019l-1.239.926c-.074.058-.172.089-.293.089-.148 0-.285-.07-.406-.203l-.426-.543c-.074-.101-.113-.207-.113-.312 0-.153.066-.278.203-.383l2.406-1.777c.153-.106.325-.157.52-.157h.582c.152 0 .273.043.363.133s.133.211.133.36z" transform="scale(1.3333333)"/>
  <path id="path74" d="m551.246 132.234c-.016 1.246-.293 2.332-.832 3.262-.543.918-1.285 1.621-2.23 2.117-.946.481-2.032.719-3.262.719h-5.285c-.168 0-.309-.059-.43-.18s-.18-.261-.18-.425v-14.536c0-.164.059-.308.18-.429.121-.117.262-.18.43-.18h5.152c1.242 0 2.344.25 3.305.742.976.481 1.742 1.188 2.297 2.117.554.914.839 1.993.855 3.239.016.449.02 1.043.02 1.777s-.004 1.328-.02 1.777zm-10.082-7.625v11.7h3.645c1.5 0 2.582-.391 3.242-1.172.676-.778 1.027-1.785 1.054-3.016.016-.449.024-1.004.024-1.664s-.008-1.215-.024-1.664c-.027-1.215-.394-2.211-1.101-2.992-.703-.797-1.809-1.192-3.309-1.192zm12.039 16.512c0-.133.027-.262.09-.379.059-.121.195-.25.402-.383 1.125-.722 1.938-1.261 2.434-1.621.508-.359.883-.699 1.125-1.011.254-.317.379-.661.379-1.036 0-.269-.098-.488-.289-.652-.184-.168-.473-.25-.879-.25-.555 0-.961.234-1.215.699-.09.164-.172.278-.246.336-.078.047-.176.071-.293.071h-.766c-.136 0-.242-.04-.316-.114s-.106-.179-.09-.316c.047-.344.18-.692.406-1.035.239-.36.571-.66.989-.899.437-.242.945-.359 1.531-.359.84 0 1.531.246 2.07.742.539.481.809 1.07.809 1.777 0 .719-.223 1.348-.676 1.891-.449.539-1.266 1.191-2.449 1.957h2.969c.148 0 .269.043.359.133s.137.211.137.359v.633c0 .148-.047.27-.137.359-.09.09-.211.133-.359.133h-5.493c-.148 0-.269-.043-.359-.133-.09-.089-.133-.211-.133-.359z" transform="scale(1.3333333)"/>
  <path id="path75" d="m618.52 162.715c-.016 1.246-.293 2.332-.832 3.262-.54.914-1.282 1.621-2.227 2.113-.945.48-2.035.722-3.262.722h-5.289c-.164 0-.308-.062-.426-.179-.121-.121-.183-.262-.183-.43v-14.535c0-.164.062-.305.183-.426.118-.121.262-.18.426-.18h5.152c1.247 0 2.348.247 3.309.743.973.48 1.738 1.183 2.293 2.113.555.918.84 1.996.856 3.242.015.449.023 1.043.023 1.778 0 .734-.008 1.328-.023 1.777zm-10.079-7.629v11.699h3.645c1.5 0 2.578-.387 3.238-1.168.676-.781 1.028-1.785 1.059-3.015.015-.45.023-1.004.023-1.664 0-.661-.008-1.215-.023-1.665-.031-1.214-.399-2.214-1.102-2.996-.707-.793-1.808-1.191-3.308-1.191zm18.09 10.644c0 .18-.023.329-.07.45-.043.105-.141.23-.289.382l-1.375 1.418c.707.133 1.215.383 1.531.743.313.359.473.863.473 1.507 0 .75-.27 1.356-.813 1.821-.539.465-1.316.699-2.34.699-.882 0-1.625-.188-2.226-.562-.598-.36-.938-.805-1.012-1.329v-.066c0-.105.039-.195.113-.27.09-.062.18-.089.27-.089h1.102c.164 0 .316.089.449.269.211.285.636.426 1.285.426.957 0 1.437-.301 1.437-.899 0-.269-.117-.48-.359-.632-.227-.133-.555-.2-.988-.2h-1.059c-.148 0-.269-.046-.359-.136s-.137-.211-.137-.36v-.359c0-.18.09-.359.27-.543l1.621-1.617h-2.676c-.152 0-.274-.047-.363-.137-.09-.09-.133-.211-.133-.359v-.629c0-.153.043-.27.133-.36.089-.089.211-.136.363-.136h4.656c.149 0 .27.047.36.136.089.09.136.207.136.36z" transform="scale(1.3333333)"/>
  <path id="path76" d="m282.219 70.188c.121-.149.234-.254.34-.317.117-.074.277-.109.472-.109h.852c.168 0 .293.043.383.133.105.074.16.179.16.316 0 .09-.031.172-.09.246l-11.117 14.625c-.121.148-.239.262-.36.336-.105.062-.254.094-.449.094h-.855c-.164 0-.301-.039-.407-.114-.089-.089-.132-.203-.132-.339 0-.09.027-.172.089-.247zm-7.266 6.953c0 .148-.047.269-.137.359-.089.09-.211.137-.359.137h-.742c-.153 0-.27-.047-.36-.137-.089-.09-.136-.211-.136-.359v-5.02l-1.239.922c-.074.062-.171.094-.292.094-.149 0-.282-.071-.403-.203l-.43-.543c-.074-.102-.109-.207-.109-.313 0-.152.066-.277.199-.383l2.41-1.777c.149-.106.321-.156.516-.156h.586c.148 0 .27.043.359.133.09.089.137.21.137.359zm4.274 7.336c0-.137.031-.266.089-.383.059-.121.196-.25.407-.383 1.125-.723 1.933-1.262 2.429-1.621.508-.36.883-.699 1.125-1.012.254-.316.383-.66.383-1.035 0-.27-.098-.488-.293-.652-.179-.164-.472-.25-.879-.25-.554 0-.957.234-1.215.699-.089.164-.171.277-.246.336-.074.047-.172.07-.293.07h-.765c-.133 0-.239-.039-.313-.113-.078-.074-.105-.18-.094-.317.047-.343.184-.687.407-1.035.242-.359.57-.66.992-.898.434-.242.945-.36 1.527-.36.84 0 1.532.247 2.071.743.539.48.812 1.07.812 1.777 0 .719-.226 1.348-.676 1.891-.449.539-1.269 1.191-2.453 1.957h2.969c.152 0 .269.043.359.132.09.09.137.211.137.364v.629c0 .148-.047.269-.137.359s-.207.137-.359.137h-5.488c-.153 0-.27-.047-.36-.137s-.136-.211-.136-.359zm11.789 1.035 5.199-11.836-.61-1.688c-.238-.644-.5-1.148-.785-1.508-.285-.375-.75-.562-1.394-.562-.274 0-.512.016-.723.043-.195.031-.375.062-.539.09v-1.598c.195-.043.422-.082.676-.109.269-.047.539-.071.808-.071.766 0 1.387.137 1.868.407.48.269.879.683 1.195 1.238.312.555.629 1.266.941 2.137l3.895 10.843c.285.813.66 1.215 1.125 1.215.121 0 .238-.011.359-.043.137-.031.242-.054.317-.066v1.461c-.164.074-.36.137-.586.18-.211.058-.442.089-.7.089-.554 0-.996-.132-1.324-.406-.316-.285-.593-.754-.836-1.414l-1.64-4.613c-.121-.36-.262-.758-.426-1.196-.152-.449-.293-.882-.43-1.304-.121-.434-.211-.793-.269-1.078h-.09c-.137.523-.317 1.086-.539 1.687-.211.602-.446 1.192-.699 1.778l-2.747 6.324z" fill="#c64600" transform="scale(1.3333333)"/>
  <path id="path77" d="m57.688 151.164c.121-.152.234-.254.335-.316.122-.075.282-.114.473-.114h.856c.168 0 .293.047.382.137.106.074.161.18.161.317 0 .089-.032.171-.09.246l-11.117 14.625c-.122.148-.239.261-.36.336-.105.062-.254.089-.449.089h-.856c-.164 0-.3-.035-.406-.109-.09-.09-.133-.203-.133-.34 0-.09.028-.172.09-.246zm-7.266 6.953c0 .149-.047.27-.137.36-.09.089-.211.132-.359.132h-.742c-.153 0-.27-.043-.36-.132-.09-.09-.136-.211-.136-.36v-5.019l-1.239.922c-.074.062-.172.089-.293.089-.148 0-.285-.066-.402-.199l-.43-.543c-.074-.105-.113-.207-.113-.312 0-.153.07-.278.203-.383l2.41-1.777c.149-.106.321-.161.516-.161h.586c.148 0 .269.047.359.137s.137.211.137.359zm8.258.492c.148 0 .269.047.359.137s.133.211.133.359v4.184h.789c.148 0 .269.047.359.137s.137.211.137.359v.629c0 .152-.047.274-.137.363-.09.09-.211.133-.359.133h-.789v1.082c0 .149-.043.27-.133.36-.09.089-.211.132-.359.132h-.746c-.149 0-.27-.043-.36-.132-.09-.09-.133-.211-.133-.36v-1.082h-3.308c-.149 0-.27-.043-.36-.133-.089-.089-.136-.211-.136-.363v-.562c0-.207.09-.434.269-.672l3.016-4.164c.195-.27.422-.407.676-.407zm-1.239 4.68v-2.406l-1.711 2.406zm8.348 3.195 5.195-11.832-.605-1.687c-.242-.649-.504-1.149-.789-1.508-.285-.375-.75-.562-1.395-.562-.269 0-.511.015-.718.043-.196.031-.375.062-.543.089v-1.597c.195-.043.421-.082.675-.114.27-.043.539-.066.813-.066.762 0 1.387.137 1.867.406.481.27.875.684 1.191 1.239.317.554.629 1.265.946 2.136l3.89 10.844c.286.813.661 1.215 1.125 1.215.121 0 .243-.016.364-.043.133-.031.238-.055.312-.07v1.464c-.164.075-.359.133-.586.18-.207.059-.441.09-.695.09-.555 0-1-.137-1.328-.406-.317-.285-.594-.758-.832-1.418l-1.645-4.61c-.117-.363-.261-.757-.426-1.195-.148-.449-.293-.883-.425-1.305-.121-.433-.211-.793-.274-1.078h-.09c-.132.524-.312 1.086-.539 1.688-.211.597-.441 1.191-.695 1.777l-2.746 6.32z" fill="#1c71d8" transform="scale(1.3333333)"/>
  <path id="path78" d="m139.375 188.398c.117-.152.23-.253.336-.316.121-.074.277-.113.473-.113h.855c.164 0 .293.047.383.136.105.075.156.18.156.317 0 .09-.031.172-.09.246l-11.113 14.625c-.121.148-.242.262-.363.336-.102.062-.254.09-.45.09h-.855c-.164 0-.297-.035-.402-.11-.09-.089-.137-.203-.137-.339 0-.09.031-.172.09-.247zm-7.27 6.954c0 .148-.043.269-.132.359-.09.09-.211.133-.364.133h-.742c-.148 0-.269-.043-.359-.133s-.133-.211-.133-.359v-5.02l-1.238.922c-.075.062-.172.09-.293.09-.149 0-.285-.067-.406-.199l-.426-.543c-.074-.106-.114-.207-.114-.313 0-.152.067-.277.204-.383l2.406-1.777c.152-.106.324-.16.519-.16h.582c.153 0 .274.047.364.136.089.09.132.211.132.36zm7.989 8.48c-1.094 0-1.914-.238-2.453-.719-.524-.496-.786-1.066-.786-1.711 0-.406.09-.765.27-1.078.195-.332.457-.57.785-.722-.238-.133-.433-.344-.586-.629-.133-.301-.199-.629-.199-.989 0-.586.238-1.105.719-1.554.496-.465 1.246-.696 2.25-.696s1.746.231 2.226.696c.496.449.742.968.742 1.554 0 .36-.074.688-.222.989-.137.285-.324.496-.563.629.328.152.582.39.766.722.191.313.289.672.289 1.078 0 .645-.27 1.215-.809 1.711-.523.481-1.335.719-2.429.719zm0-4.859c.39 0 .691-.082.898-.246.227-.18.34-.383.34-.61 0-.222-.113-.426-.34-.605-.222-.18-.523-.27-.898-.27s-.676.09-.899.27c-.226.179-.34.383-.34.605 0 .227.106.43.317.61.223.164.531.246.922.246zm0 1.394c-.465 0-.832.09-1.102.27-.269.179-.406.422-.406.722 0 .286.137.516.406.696.285.179.653.269 1.102.269s.808-.09 1.078-.269c.285-.18.43-.41.43-.696 0-.3-.137-.543-.407-.722-.269-.18-.636-.27-1.101-.27zm8.527 3.352 5.199-11.832-.609-1.688c-.238-.644-.504-1.148-.789-1.508-.285-.375-.75-.562-1.395-.562-.269 0-.507.016-.718.043-.196.031-.375.062-.539.09v-1.598c.195-.043.418-.082.675-.109.27-.047.539-.071.809-.071.766 0 1.387.137 1.867.407.481.269.879.683 1.191 1.238.317.555.633 1.266.946 2.137l3.894 10.843c.286.813.66 1.215 1.125 1.215.118 0 .239-.015.36-.043.133-.031.238-.054.312-.07v1.465c-.164.074-.359.133-.582.179-.211.059-.445.09-.699.09-.555 0-.996-.136-1.328-.406-.313-.285-.59-.758-.832-1.418l-1.641-4.609c-.121-.364-.262-.758-.429-1.196-.149-.449-.293-.882-.426-1.304-.121-.434-.211-.793-.27-1.078h-.09c-.136.523-.316 1.086-.543 1.687-.207.598-.441 1.191-.695 1.777l-2.746 6.321z" fill="#26a269" transform="scale(1.3333333)"/>
  <path id="path79" d="m167.25 132.777 185.75-60.57" fill="none" stroke="#c64600" stroke-width="1.417" transform="scale(1.3333333)"/>
  <path id="path80" d="m173.156 130.926-5.426-2.446-12.164 8.106 23.016-3.215-10.852-4.891" fill="#c64600" transform="scale(1.3333333)"/>
  <path id="path81" d="m344.973 74.746 5.429 2.445 12.164-8.105-23.019 3.215 10.855 4.89" fill="#c64600" transform="scale(1.3333333)"/>
  <path id="path82" d="m75.754 106.988-57.766 18.84" fill="none" stroke="#000" stroke-dasharray="2.25,.75" stroke-width=".75" transform="scale(1.3333333)"/>
  <path id="path83" d="m183.875 149.605-65.594 21.391" fill="none" stroke="#000" stroke-dasharray="2.25,.75" stroke-width=".75" transform="scale(1.3333333)"/>
  <path id="path84" d="m254.68 179.062-68.735 22.411" fill="none" stroke="#000" stroke-dasharray="2.25,.75" stroke-width=".75" transform="scale(1.3333333)"/>
  <path id="path85" d="m29.523 122.066 13.391 10.637 5.836-1.906 5.836-1.902z" fill="#1c71d8" transform="scale(1.3333333)"/>
  <path id="path86" d="m129.805 167.238-13.387-10.636-5.836 1.906-5.836 1.902z" fill="#1c71d8" transform="scale(1.3333333)"/>
  <path id="path87" d="m48.75 130.797 61.832 27.711" fill="none" stroke="#1c71d8" stroke-linecap="square" stroke-linejoin="round" stroke-width="1.417" transform="scale(1.3333333)"/>
  <path id="path88" d="m129.805 167.238 13.39 10.637 5.836-1.906 5.836-1.903z" fill="#26a269" transform="scale(1.3333333)"/>
  <path id="path89" d="m197.609 197.875-13.39-10.637-5.836 1.903-5.836 1.906z" fill="#26a269" transform="scale(1.3333333)"/>
  <path id="path90" d="m149.031 175.969 29.352 13.172" fill="none" stroke="#26a269" stroke-linecap="square" stroke-width="1.417" transform="scale(1.3333333)"/>
 </g>
</svg>